<svg version="1.1" preserveAspectRatio="none" xmlns="http://www.w3.org/2000/svg" width="500" height="500" viewBox="0 0 500 500"><rect width="100%" height="100%" fill="#3B3B3B" fill-opacity="1"/><svg viewBox="50.6558 30.7201 359.7268 440.2441" width="272.0968308263529" height="333" x="113.9516px" y="83.5px" xmlns="http://www.w3.org/2000/svg" xmlns:xlink="http://www.w3.org/1999/xlink" preserveAspectRatio="none"><defs></defs><style>.aIptOCySncolors-3 {fill:#161616;fill-opacity:1;}.aIptOCySncolors-4 {fill:#F7F7F7;fill-opacity:1;}.aIptOCySncolors-5 {fill:#EDF577;fill-opacity:1;}.aIptOCySncolors-6 {fill:#C4C4C4;fill-opacity:1;}.aIptOCySncolors-7 {fill:#555555;fill-opacity:1;}.companyName {fill:#F7F7F7;fill-opacity:1;}.icon1 {fill:#FFCC57;fill-opacity:1;}.icon2 {fill:#EF802F;fill-opacity:1;}.icon3 {fill:#DB5192;fill-opacity:1;}.icon3-str {stroke:#DB5192;stroke-opacity:1;}</style><g opacity="1" transform="rotate(0 50.6558 30.7201)">
<svg width="359.7268" height="360.2441" x="50.6558" y="30.7201" version="1.1" preserveAspectRatio="none" viewBox="20.200002670288086 19.970077514648438 159.8000030517578 160.02992248535156">
  <g transform="matrix(1 0 0 1 0 0)"><g><path d="M81.6 164.8l21.3-21.3-1.4-1.8-19.9 23.1z" data-color="1" class="icon1"></path><path d="M105 137.6l1.6 2.1 1.4-1.4-1.7-2.3-1.3 1.6z" data-color="1" class="icon1"></path><path d="M102.5 140.5l1.4 1.9 1.6-1.6-1.6-2-1.4 1.7z" data-color="1" class="icon1"></path><path d="M122.3 117.5h6.5l1.9-1.9h-6.8l-1.6 1.9z" data-color="1" class="icon1"></path><path d="M172.5 36.6l-49.1 50c0 .8-.1 1.6-.1 2.4 0 .2-.1.4-.1.7.3 3.6-.3 7.6-1.6 11.8h14.7l-7.6 8.8h7.5l15.6-15.6h-22.2c0-.1 42.9-58.1 42.9-58.1z" data-color="1" class="icon1"></path><path d="M125.2 114.2h7l2.5-2.5h-7.3c-.1 0-2.2 2.5-2.2 2.5z" data-color="1" class="icon1"></path><path d="M107.3 134.9l1.8 2.4 18.2-18.3H121l-13.7 15.9z" data-color="1" class="icon1"></path><path d="M59.6 138.4c9.9 2.2 20.1.7 27.9-4.3 1.1-1.3 2.1-2.6 3.1-4-2.5.5-5 .8-7.6.8-4.8 0-9.6-.9-14.2-2.7-1.4.4-2.8.7-4.2.9-1.9.3-3.9.4-5.8.4-7.6 0-15-2.3-21.2-6.4-.4.1-.8.1-1.2.2 5.2 7.4 13.7 12.9 23.2 15.1z" data-color="1" class="icon1"></path><path d="M55.2 138.7l-1.2 8.1c1.7.2 3.5.4 5.2.4H61l.4-6.9c-.7-.1-1.3-.2-2-.4-1.5-.4-2.9-.8-4.2-1.2z" data-color="1" class="icon1"></path><path d="M84.1 137.6c-4.1 1.9-8.7 2.9-13.4 3.2l.3 4.4c4.9-1.6 9.3-4.2 13.1-7.6z" data-color="1" class="icon1"></path><path d="M44.8 144.3c2.5 1 5 1.8 7.6 2.2l1.2-8.4c-1.9-.7-3.7-1.5-5.4-2.5l-3.4 8.7z" data-color="1" class="icon1"></path><path d="M68.5 140.9c-1.9 0-3.8-.1-5.7-.4l-.3 6.6c2.4-.2 4.8-.7 7.2-1.3l-.4-4.8 1.1-.1c-.7-.1-1.3 0-1.9 0z" data-color="1" class="icon1"></path><path d="M43.3 132.5l-7.6 6.4c.5.4.9.8 1.4 1.1 2 1.5 4.1 2.7 6.3 3.7L47 135c-1.2-.8-2.5-1.6-3.7-2.5z" data-color="1" class="icon1"></path><path d="M34.7 123.4c-3.5.3-7.1.1-10.5-.6.8 2.3 1.9 4.4 3.2 6.5l10.8-1.5c-1.3-1.4-2.5-2.8-3.5-4.4z" data-color="1" class="icon1"></path><path d="M39.4 129.1l-11.2 1.5c1.8 2.7 3.9 5.1 6.4 7.2l7.5-6.3c-.9-.7-1.8-1.5-2.7-2.4z" data-color="1" class="icon1"></path><path d="M92.1 123.1c-1.1.2-2.2.4-3.3.5-1.4.2-2.8.2-4.2.2-1 0-2-.1-3.1-.1-.5 0-1 0-1.5-.1-.6.3-1.3.7-1.9 1-2.2 1.1-4.5 2-6.9 2.7 7.9 2.6 16.3 2.5 24-.1l-3.1-4.1z" data-color="1" class="icon1"></path><path d="M110.9 116.9c2.8-3.1 7.1-9.4 9.3-16.5-4.8 11.1-14.6 19.5-26.5 22.4l3 4c5.5-2.2 10.3-5.5 14.2-9.9z" data-color="1" class="icon1"></path><path d="M75.9 69.7l6.5 2.6c0-.1-.1-.3-.1-.4-.1-.9-.2-1.7-.2-2.6l-6.2.4z" data-color="1" class="icon1"></path><path d="M82.5 65.1v-.7l-6.8 3.8 6.5-.4c0-1 .1-1.8.3-2.7z" data-color="1" class="icon1"></path><path d="M100 53.9c-5-.2-9.8 1.7-12.8 5.1-.4.5-.9 1-1.2 1.6 2.4-1.3 4.9-2.2 7.6-2.7 9.8-1.9 18.2 2.5 24 7.3-.9-1.7-1.9-3.3-3.2-4.8-3.7-4.1-8.5-6.3-14.4-6.5z" data-color="1" class="icon1"></path><path d="M86.4 85.8l-.2-.1.2.1z" data-color="1" class="icon1"></path><path d="M82.5 122.3c2.1.1 4.1.1 6.2-.1 10.8-1.2 20.3-7 26.4-15.5-8.5-.5-15.2-7.3-15.6-15.8-1.1-.2-2.3-.4-3.4-.7-3.9-1.1-6.9-2.7-8.8-3.8 3.5 2.5 6.1 6.5 7.1 11.1 1.3 6.2.3 11.8-3.1 16.7-2.1 3-5.1 5.7-8.8 8.1z" data-color="1" class="icon1"></path><path d="M121.8 87.2c-6.2 3.1-11.9 4.2-16.7 4.2-1.4 0-2.8-.1-4.2-.3.5 7.9 7 14.1 15 14.1v.1c3.2-5 5.2-10.6 5.8-16.5.1-.5.1-1 .1-1.6z" data-color="1" class="icon1"></path><path d="M93.8 59.3c-4.2.8-7.5 2.6-9.2 3.7-1 2.5-1.2 5.4-.8 8.6.3 1.9.7 4.1 1.2 6.3s.9 4.4 1.1 5.9c.7.5 4.5 3.3 10.3 4.9 5.8 1.6 15 2.3 25.4-3.2 0-4.7-.6-11.1-2.9-17-8-7.7-16.5-10.8-25.1-9.2z" data-color="1" class="icon1"></path><path d="M30.9 88.5c-3.1-1.7-5.9-3.8-8.5-6.3-.5 2.4-.8 4.8-.9 7.2l9.9 4.7c-.3-1.8-.5-3.7-.5-5.6z" data-color="1" class="icon1"></path><path d="M31.8 95.9L21.6 91c0 3.2.5 6.4 1.4 9.5l9.8-1.2c-.5-1-.8-2.2-1-3.4z" data-color="1" class="icon1"></path><path d="M69.3 126.4c2.8-.8 5.5-1.8 8.1-3-5.7-1.1-11.1-4.4-15.5-9.6-4.9-5.9-7.8-13.3-8-20.6-7.4.8-14.8-.5-21.5-3.8.3 9.1 4.3 18.3 11.2 25.4 7.1 7.3 16.4 11.5 25.7 11.6z" data-color="1" class="icon1"></path><path d="M92.1 109.6c1.5-3.6 1.8-7.6.8-11.8-1.1-4.9-4.1-9.1-8.1-11.2-3.9-2-8.4-2-13.1-.1-.5.2-1 .4-1.5.7 0 12.2 9.7 22.1 21.9 22.4z" data-color="1" class="icon1"></path><path d="M79.7 122.2c4-2.2 7.8-5.1 10.4-8.9.5-.7.9-1.5 1.3-2.3-12.4-.6-22.3-10.7-22.7-23.2-.9.4-1.9.9-2.8 1.4-2.6 1.3-5.1 2.5-6.6 2.9-1.3.3-2.6.6-3.9.8.2 7 2.9 14.2 7.7 19.8 4.6 5.7 10.5 8.9 16.6 9.5z" data-color="1" class="icon1"></path><path d="M28 111.6c1.5 2.2 3.2 4.2 5.2 6.1l5.6-6.3c-1.2-1.6-2.2-3.3-3.2-5l-7.6 5.2z" data-color="1" class="icon1"></path><path d="M34.9 105c-.7-1.3-1.2-2.7-1.7-4.1l-9.8 1.2c.2.6.4 1.1.6 1.7.9 2.3 2 4.5 3.3 6.6-.1-.1 7.6-5.4 7.6-5.4z" data-color="1" class="icon1"></path><path d="M58.8 128c1.9 0 3.7-.1 5.6-.4h.1c-4.5-.7-8.9-2.3-13-4.7l-2.1 3.9c3.1.7 6.2 1.2 9.4 1.2z" data-color="1" class="icon1"></path><path d="M44 117.2c-.5-.5-1-.9-1.5-1.4-1-1-1.9-2.1-2.8-3.3l-5.4 6.1c1.8 1.5 3.7 2.9 5.7 4.1-.1.1 4-5.5 4-5.5z" data-color="1" class="icon1"></path><path d="M41.2 123.5c2.1 1.2 4.4 2.1 6.7 2.8l2.3-4.2.8.4c-2.1-1.3-4.1-2.7-5.9-4.3l-3.9 5.3z" data-color="1" class="icon1"></path><path d="M103.5 36.4l-2.9-9.7-3.2 9.7c.9 0 1.7-.1 2.6-.1 1.2 0 2.4 0 3.5.1z" data-color="1" class="icon1"></path><path d="M114.2 38.4l-3.1-5.6-2.5 4.2c2.2.3 4.1.8 5.6 1.4z" data-color="1" class="icon1"></path><path d="M90 32.9L87 38c1.5-.5 3.2-.9 5.2-1.1l-2.2-4z" data-color="1" class="icon1"></path><path d="M115.4 44.5c-1.3-.7-3.1-1.2-5.2-1.7-2.6-.4-6-.7-10.2-.7-4.2 0-7.7.3-10.2.7-2.1.4-3.9 1-5.2 1.7 1 .8 6.4 2.1 15.4 2.1s14.4-1.3 15.4-2.1z" data-color="1" class="icon1"></path><path d="M84.2 43c3.6-1.7 9.4-2.7 15.9-2.7s12.3 1 15.9 2.7c.7-.5.9-.9.9-1.1 0-.5-1.2-1.6-4.3-2.6-3.3-1-7.7-1.6-12.5-1.6s-9.2.6-12.5 1.6c-3.1 1-4.3 2.1-4.3 2.6-.1.2.2.6.9 1.1z" data-color="1" class="icon1"></path><path d="M107.4 30.7c.8 0 1.4-.7 1.3-1.4 0-.7-.6-1.3-1.3-1.3-.8 0-1.4.7-1.3 1.4 0 .7.6 1.3 1.3 1.3z" data-color="1" class="icon1"></path><path d="M100.7 24.3c.8 0 1.4-.7 1.3-1.4 0-.7-.6-1.3-1.3-1.3-.8 0-1.4.7-1.3 1.4 0 .6.5 1.2 1.3 1.3z" data-color="1" class="icon1"></path><path d="M94.1 30.7c.8 0 1.4-.7 1.3-1.4 0-.7-.6-1.3-1.3-1.3-.8 0-1.4.7-1.3 1.4 0 .7.6 1.3 1.3 1.3z" data-color="1" class="icon1"></path><path d="M132.5 93.1L180 29l-1.1-1-55.5 56.4c0-3.2-.4-6.5-1-9.6-1.3-6.3-3.7-11.6-6.9-15.4-3.9-4.5-9.1-6.9-15.4-7.1-5.5-.2-10.7 1.9-14 5.6-1.1 1.2-2 2.6-2.6 4.1-.3.2-.6.4-.8.6l-11.9 6.6 1.5.6v.1h.2l10.2 4c.3 1.4.6 2.8.9 4.3.6 2.8 1.1 5.3 1.2 6.7-4.1-1.9-8.8-1.8-13.6.2-1.8.8-3.9 1.8-5.9 2.8-2.6 1.3-5 2.5-6.3 2.8C45.9 94 32 90 22.7 80.2l-.9-1-.3 1.3c-.8 3.1-1.3 6.4-1.3 9.6v.1c0 4.7.8 9.5 2.5 13.9 2.7 7.2 7.4 13.2 13.3 17.6-4.2.5-8.5.2-12.6-.7l-1.3-.3.4 1.3c1 3.1 2.4 6 4.2 8.7v.1h.1c2.6 4 5.9 7.5 9.7 10.3 6.8 5 14.9 7.5 22.9 7.5 9.3 0 18.6-3.3 25.9-9.9 1.2-1.1 2.4-2.3 3.5-3.6h.1c1.5-1.7 2.9-3.6 4.2-5.5 1.2-.3 2.3-.7 3.4-1.1l6.9 9-1.5 1.7-1.8-2.5-1.2.9 2 2.7L67.4 179l1.1 1 35.3-35.3 1.7 2.3 1.2-.9-1.8-2.4 1.6-1.6 3.5 4.5 1.2-.9-3.6-4.7 1.4-1.4 1.7 2.3 1.2-.9-1.8-2.4 19.4-19.4h3.9v-1.5H131l1.9-1.9h7.4v-1.5h-5.9l2.5-2.5h4.6v-1.5h-3.1l17.1-17.1-23-.1zm-30 47.4l1.5-1.7 1.6 2-1.6 1.6-1.5-1.9zm.4 3l-21.3 21.3 19.9-23.1 1.4 1.8zm2.1-5.9l1.3-1.5 1.7 2.3-1.4 1.4-1.6-2.2zm-33.7-10.2c2.3-.7 4.6-1.6 6.9-2.7.7-.3 1.3-.6 1.9-1 .5 0 1 .1 1.5.1 1 .1 2 .1 3.1.1 1.4 0 2.8-.1 4.2-.2 1.1-.1 2.2-.3 3.3-.5l3.2 4.1c-7.8 2.6-16.3 2.7-24.1.1zm16.2 6.6c-7.8 5-18 6.6-27.9 4.3-9.6-2.2-18-7.7-23.3-15.1.4 0 .8-.1 1.2-.2 6.2 4.1 13.6 6.4 21.2 6.4 1.9 0 3.9-.1 5.8-.4 1.4-.2 2.8-.5 4.2-.9 4.5 1.8 9.3 2.7 14.2 2.7 2.6 0 5.1-.3 7.6-.8-.8 1.4-1.9 2.8-3 4zm-63.3-11.2c3.5.7 7 .9 10.5.6 1 1.6 2.2 3 3.5 4.4l-10.8 1.5c-1.3-2.1-2.4-4.2-3.2-6.5zm15.2 6.3c.9.8 1.8 1.7 2.7 2.4l-7.5 6.3c-2.4-2.1-4.6-4.5-6.4-7.2l11.2-1.5zm3.9 3.4c1.2.9 2.4 1.7 3.7 2.5l-3.6 8.7c-2.2-1-4.3-2.2-6.3-3.7-.5-.4-.9-.7-1.4-1.1l7.6-6.4zm1.5 11.8l3.5-8.6c1.7.9 3.5 1.8 5.4 2.5l-1.2 8.4c-2.6-.5-5.2-1.3-7.7-2.3zm9.2 2.5l1.2-8.1c1.4.5 2.7.9 4.2 1.2.7.2 1.3.3 2 .4l-.4 6.9h-1.8c-1.8-.1-3.5-.2-5.2-.4zm14.5-5.9c.6 0 1.2 0 1.8-.1l-1.1.1.4 4.8c-2.3.7-4.7 1.1-7.2 1.3l.3-6.6c2 .3 3.9.5 5.8.5zm2.6 4.3l-.3-4.4c4.7-.3 9.3-1.3 13.4-3.2-3.9 3.4-8.3 6-13.1 7.6zm46.4-80c-5.9-4.8-14.2-9.2-24-7.3-2.6.5-5.2 1.4-7.6 2.7.4-.6.8-1.1 1.2-1.6 3-3.3 7.8-5.2 12.8-5.1 5.9.2 10.7 2.4 14.3 6.6 1.4 1.4 2.4 3 3.3 4.7zm-23.7-5.9c8.6-1.6 17.1 1.5 25.2 9.2 2.3 5.9 2.9 12.4 2.9 17-10.5 5.6-19.6 4.8-25.4 3.2-5.9-1.6-9.7-4.4-10.3-4.9-.2-1.6-.6-3.7-1.1-5.9-.5-2.2-.9-4.4-1.2-6.3-.5-3.2-.2-6 .8-8.6 1.7-1.1 4.9-2.9 9.1-3.7zM51 122.5l-.8-.4-2.3 4.2c-2.3-.7-4.6-1.7-6.7-2.8l3.9-5.3c1.8 1.6 3.8 3.1 5.9 4.3zm13.5 5c-1.9.3-3.8.4-5.7.4-3.2 0-6.4-.4-9.4-1.2l2.1-3.9c4.1 2.4 8.5 4 13 4.7zm51.4-22.2c-8-.1-14.5-6.3-15-14.2 1.3.2 2.7.3 4.2.3 4.9 0 10.6-1.1 16.7-4.2 0 .5-.1 1.1-.1 1.6-.5 5.9-2.5 11.6-5.8 16.5zm-21.6-7.8c-1-4.6-3.6-8.6-7.1-11.1 1.9 1.1 4.9 2.7 8.8 3.8 1.1.3 2.3.6 3.4.7.4 8.5 7.1 15.3 15.6 15.8-6 8.5-15.5 14.3-26.4 15.5-2.1.2-4.2.3-6.2.1 3.7-2.4 6.8-5.1 8.8-8.1 3.5-5 4.5-10.6 3.1-16.7zM82.5 64.4v.7c-.2.9-.3 1.8-.3 2.7l-6.5.4 6.8-3.8zm-.3 4.8c0 .8.1 1.7.2 2.6 0 .1 0 .3.1.4L76 69.6l6.2-.4zm4.2 16.6c-.1 0-.1-.1-.2-.1l.2.1zm-1.6.8c4 2.1 7 6.3 8.1 11.2.9 4.2.6 8.2-.8 11.8-12.1-.3-21.9-10.2-21.9-22.4.5-.2 1-.5 1.5-.7 4.7-1.9 9.3-1.9 13.1.1zm-18.9 2.7c.9-.5 1.9-.9 2.8-1.4.3 12.5 10.3 22.6 22.7 23.2-.4.8-.8 1.5-1.3 2.3-2.6 3.8-6.4 6.7-10.4 8.9-6.1-.5-12-3.8-16.7-9.4-4.8-5.7-7.5-12.9-7.7-19.8 1.3-.2 2.6-.4 3.9-.8 1.6-.5 4-1.7 6.7-3zm-12 3.8c.2 7.2 3.1 14.7 8 20.6 4.4 5.2 9.8 8.6 15.5 9.6-2.6 1.2-5.3 2.3-8.1 3-9.3-.1-18.6-4.3-25.7-11.7-6.8-7.1-10.9-16.3-11.2-25.4 6.7 3.4 14.1 4.7 21.5 3.9zm-23-4.6c0 1.9.2 3.7.5 5.6l-9.9-4.7c.1-2.4.4-4.8.9-7.2 2.6 2.5 5.4 4.6 8.5 6.3zm.9 7.4c.3 1.2.6 2.4.9 3.5l-9.8 1.2c-.9-3.1-1.3-6.3-1.4-9.5l10.3 4.8zm1.4 5c.5 1.4 1.1 2.8 1.7 4.1l-7.8 5.3c-1.3-2.1-2.4-4.3-3.3-6.6-.2-.6-.4-1.1-.6-1.7.2 0 10-1.1 10-1.1zm2.4 5.4c.9 1.7 2 3.4 3.2 5l-5.6 6.3c-1.9-1.8-3.7-3.9-5.2-6.1l7.6-5.2zm4.1 6.2c.9 1.1 1.8 2.2 2.8 3.3.5.5 1 1 1.5 1.4l-4.1 5.5c-2-1.2-3.9-2.6-5.7-4.1l5.5-6.1zm54 10.3c11.9-2.9 21.7-11.3 26.5-22.4-2.2 7.1-6.6 13.4-9.3 16.5-3.9 4.3-8.7 7.7-14.2 9.8l-3-3.9zm26-16.8c.5-1 .9-2.1 1.3-3.1h12l-6.3 7.3h-3.4v1.5h2.2l-2.1 2.5H115c1.7-2.6 3.4-5.4 4.7-8.2zm-12.4 28.9L121 119h6.3l-18.2 18.3-1.8-2.4zm15-17.4l1.6-1.9h6.8l-1.9 1.9h-6.5zm2.9-3.3l2.1-2.5h7.3l-2.5 2.5h-6.9zm3.4-4l7.6-8.8h-14.7c1.4-4.2 1.9-8.2 1.6-11.8 0-.2.1-.4.1-.7.1-.8.1-1.6.1-2.4l49.1-50-42.9 58h22.2l-15.6 15.6-7.5.1zM97.7 128c5.5-2.2 10.4-5.6 14.3-10.1.6-.7 1.3-1.5 1.8-2.3h8.1l-1.6 1.9h-3.2v1.5h1.9l-12.6 14.7-1.5-2-1.2.9 1.7 2.3-1.3 1.5-6.4-8.4z" data-color="2" class="icon2"></path><path d="M92.7 72.9h.2c2.7 0 4.8-2.2 4.8-4.8v-.2c0-2.7-2.2-4.8-4.8-4.8h-.2c-2.7 0-4.8 2.2-4.8 4.8v.2c0 2.7 2.2 4.8 4.8 4.8zm-3.3-5c0-1.8 1.5-3.3 3.3-3.3h.2c1.8 0 3.3 1.5 3.3 3.3v.2c0 1.8-1.5 3.3-3.3 3.3h-.2c-1.8 0-3.3-1.5-3.3-3.3v-.2z" data-color="2" class="icon2"></path><path d="M83 44v.3c0 .8.6 2 5.4 2.8 3.1.6 7.3.9 11.7.9 4.4 0 8.5-.3 11.7-.9 4.8-.9 5.4-2 5.4-2.8V44c.8-.6 1.2-1.3 1.2-2 0-.9-.6-1.7-1.7-2.4l-5.3-9.8-4.1 6.9c-.6-.1-1.3-.2-2-.2l-3.3-11c1.5-.6 2.1-2.3 1.5-3.8-.6-1.5-2.3-2.1-3.8-1.5-1 .5-1.7 1.5-1.7 2.6s.7 2.1 1.6 2.6l-3.6 11c-.7.1-1.4.1-2.1.2l-3.7-6.7-5.3 8.9c-1.9.9-3 2-3 3.1-.1.8.3 1.5 1.1 2.1zm16.3-21.1c0-.8.7-1.4 1.4-1.3.7 0 1.3.6 1.3 1.3 0 .8-.7 1.4-1.4 1.3-.7 0-1.3-.6-1.3-1.3zm4.2 13.5c-1.2-.1-2.3-.1-3.5-.1-.9 0-1.7 0-2.6.1l3.2-9.7 2.9 9.7zm13.3 5.6c0 .2-.2.6-.9 1.1-3.6-1.7-9.4-2.7-15.9-2.7s-12.3 1-15.9 2.7c-.7-.5-.9-.9-.9-1.1 0-.5 1.2-1.6 4.3-2.6 3.3-1 7.7-1.6 12.5-1.6s9.2.6 12.5 1.6c3.1.9 4.3 2.1 4.3 2.6zm-32.2 2.5c1.3-.7 3.1-1.2 5.2-1.7 2.6-.4 6-.7 10.2-.7 4.2 0 7.7.3 10.2.7 2.1.4 3.9 1 5.2 1.7-1 .8-6.4 2.1-15.4 2.1s-14.4-1.3-15.4-2.1zm24-7.5l2.5-4.2 3.1 5.6c-1.5-.6-3.4-1.1-5.6-1.4zM87 38l3-5.1 2.1 3.9c-1.9.3-3.6.7-5.1 1.2z" data-color="2" class="icon2"></path><path d="M107.4 32.2c1.6 0 2.9-1.3 2.9-2.9 0-1.6-1.3-2.9-2.9-2.9-1.6 0-2.9 1.3-2.9 2.9 0 1.6 1.3 2.9 2.9 2.9zm0-4.3c.8 0 1.4.7 1.3 1.4 0 .7-.6 1.3-1.3 1.3-.8 0-1.4-.7-1.3-1.4 0-.7.6-1.3 1.3-1.3z" data-color="2" class="icon2"></path><path d="M94.1 32.2c1.6 0 2.9-1.3 2.9-2.9 0-1.6-1.3-2.9-2.9-2.9-1.6 0-2.9 1.3-2.9 2.9.1 1.6 1.3 2.9 2.9 2.9zm0-4.3c.8 0 1.4.7 1.3 1.4 0 .7-.6 1.3-1.3 1.3-.8 0-1.4-.7-1.3-1.4 0-.7.6-1.3 1.3-1.3z" data-color="2" class="icon2"></path></g></g>
</svg>
</g><g opacity="1" transform="rotate(0 50.6558 430.9642)">
<svg width="359.7268" height="40" x="50.6558" y="430.9642" version="1.1" preserveAspectRatio="none" viewBox="0.08 -28.64 263.32 29.28">
  <g transform="matrix(1 0 0 1 0 0)" class="companyName"><path id="id-D6z1nYkh9" d="M31.16-28L39.20-28L33.68 0L25.08 0L27.56-12.76L19.68-2.52L15.52-2.52L11.20-12.60L8.68 0L0.08 0L5.68-28L13.36-28L19.44-13.12L31.16-28Z M68.04-18.80Q68.04-15.08 66.06-12.30Q64.08-9.52 60.48-8.16L60.48-8.16L65.16 0L55.36 0L51.40-7.04L49.08-7.04L47.68 0L38.24 0L43.84-28L56.40-28Q61.92-28 64.98-25.58Q68.04-23.16 68.04-18.80L68.04-18.80ZM58.48-17.88Q58.48-20.72 54.96-20.72L54.96-20.72L51.80-20.72L50.48-14.16L54.36-14.16Q56.32-14.16 57.40-15.14Q58.48-16.12 58.48-17.88L58.48-17.88Z M69-8.16L70.36-14.96L82.36-14.96L81-8.16L69-8.16Z M99.36 0.64Q95.08 0.64 91.82-0.94Q88.56-2.52 86.78-5.36Q85-8.20 85-11.88L85-11.88Q85-16.76 87.26-20.56Q89.52-24.36 93.54-26.50Q97.56-28.64 102.68-28.64L102.68-28.64Q106.72-28.64 109.84-27.18Q112.96-25.72 114.48-23.04L114.48-23.04L107.68-17.72Q105.80-21 102.08-21L102.08-21Q99.88-21 98.16-19.92Q96.44-18.84 95.48-16.90Q94.52-14.96 94.52-12.48L94.52-12.48Q94.52-10 96.10-8.50Q97.68-7 100.28-7L100.28-7Q103.84-7 106.52-10.24L106.52-10.24L112.08-4.92Q109.64-1.92 106.54-0.64Q103.44 0.64 99.36 0.64L99.36 0.64Z M128.36 0.64Q124.08 0.64 120.86-0.94Q117.64-2.52 115.90-5.36Q114.16-8.20 114.16-11.88L114.16-11.88Q114.16-16.76 116.42-20.58Q118.68-24.40 122.70-26.52Q126.72-28.64 131.80-28.64L131.80-28.64Q136.08-28.64 139.30-27.06Q142.52-25.48 144.26-22.64Q146-19.80 146-16.12L146-16.12Q146-11.24 143.74-7.42Q141.48-3.60 137.46-1.48Q133.44 0.64 128.36 0.64L128.36 0.64ZM129.16-7Q131.40-7 133.06-8.16Q134.72-9.32 135.60-11.28Q136.48-13.24 136.48-15.56L136.48-15.56Q136.48-18.04 135.02-19.52Q133.56-21 131-21L131-21Q128.76-21 127.10-19.84Q125.44-18.68 124.56-16.72Q123.68-14.76 123.68-12.44L123.68-12.44Q123.68-9.96 125.14-8.48Q126.60-7 129.16-7L129.16-7Z M146.52 0L152.12-28L164.76-28Q169.16-28 172.38-26.56Q175.60-25.12 177.32-22.44Q179.04-19.76 179.04-16.12L179.04-16.12Q179.04-11.28 176.80-7.62Q174.56-3.96 170.58-1.98Q166.60 0 161.52 0L161.52 0L146.52 0ZM157.44-7.36L161.84-7.36Q165.48-7.36 167.50-9.66Q169.52-11.96 169.52-15.56L169.52-15.56Q169.52-18 168.02-19.32Q166.52-20.64 163.68-20.64L163.68-20.64L160.08-20.64L157.44-7.36Z M206.48-20.88L193-20.88L192.36-17.60L204.20-17.60L202.84-10.80L190.96-10.80L190.24-7.12L204.28-7.12L202.84 0L179.56 0L185.16-28L207.92-28L206.48-20.88Z M236.28-18.80Q236.28-15.08 234.30-12.30Q232.32-9.52 228.72-8.16L228.72-8.16L233.40 0L223.60 0L219.64-7.04L217.32-7.04L215.92 0L206.48 0L212.08-28L224.64-28Q230.16-28 233.22-25.58Q236.28-23.16 236.28-18.80L236.28-18.80ZM226.72-17.88Q226.72-20.72 223.20-20.72L223.20-20.72L220.04-20.72L218.72-14.16L222.60-14.16Q224.56-14.16 225.64-15.14Q226.72-16.12 226.72-17.88L226.72-17.88Z M247.40 0.64Q243.76 0.64 240.56-0.14Q237.36-0.92 235.28-2.20L235.28-2.20L238.92-9.16Q243.44-6.56 248.36-6.56L248.36-6.56Q250.16-6.56 251.12-7Q252.08-7.44 252.08-8.20L252.08-8.20Q252.08-8.92 251.10-9.36Q250.12-9.80 248-10.32L248-10.32Q245.20-11.04 243.36-11.78Q241.52-12.52 240.14-14.06Q238.76-15.60 238.76-18.12L238.76-18.12Q238.76-21.28 240.46-23.66Q242.16-26.04 245.36-27.34Q248.56-28.64 252.92-28.64L252.92-28.64Q256.04-28.64 258.74-28.02Q261.44-27.40 263.40-26.24L263.40-26.24L260-19.36Q258.36-20.40 256.38-20.92Q254.40-21.44 252.32-21.44L252.32-21.44Q250.36-21.44 249.28-20.88Q248.20-20.32 248.20-19.56L248.20-19.56Q248.20-18.80 249.18-18.36Q250.16-17.92 252.40-17.40L252.40-17.40Q255.12-16.76 256.98-16.04Q258.84-15.32 260.20-13.80Q261.56-12.28 261.56-9.80L261.56-9.80Q261.56-6.68 259.84-4.32Q258.12-1.96 254.92-0.66Q251.72 0.64 247.40 0.64L247.40 0.64Z"/></g>
</svg>
</g></svg></svg>