<svg version="1.1" preserveAspectRatio="none" xmlns="http://www.w3.org/2000/svg" width="500" height="500" viewBox="0 0 500 500"><rect width="100%" height="100%" fill="#012B28" fill-opacity="1"/><svg viewBox="479.2236 335.7269 391.8677 190.1439" width="333" height="161.5798360007727" x="83.5px" y="169.2101px" xmlns="http://www.w3.org/2000/svg" xmlns:xlink="http://www.w3.org/1999/xlink" preserveAspectRatio="none"><defs></defs><style>.companyName {fill:#EBB42C;fill-opacity:1;}.icon2 {fill:#E7240E;fill-opacity:1;}.icon3 {fill:#B47049;fill-opacity:1;}.icon3-str {stroke:#B47049;stroke-opacity:1;}</style><g opacity="1" transform="rotate(0 479.2236 495.8708)">
<svg width="391.8677" height="30" x="479.2236" y="495.8708" version="1.1" preserveAspectRatio="none" viewBox="4.8 -28.48 378.28 28.96">
  <g transform="matrix(1 0 0 1 0 0)" class="companyName"><path id="id-D6z1nYkh9" d="M20.36-3.96L7.52-28L4.80-28L4.80 0L6.56 0L6.56-22.84L6.72-22.84L19.08 0.48L19.80 0.48L32.44-22.68L32.60-22.68L32.60 0L36.24 0L36.24-28L33.48-28L20.52-3.96L20.36-3.96Z M70.92-28L61.84-28L61.84 0L65.48 0L65.48-12.36L67.24-12.36Q68.36-12.36 69.10-12.16Q69.84-11.96 70.44-11.48Q71.04-11 71.56-10.24Q72.08-9.48 72.80-8.36L72.80-8.36L75.96-3.68Q76.56-2.76 77.14-2Q77.72-1.24 78.40-0.70Q79.08-0.16 79.94 0.16Q80.80 0.48 82 0.48L82 0.48Q82.88 0.48 83.44 0.40Q84 0.32 84.56 0L84.56 0L84.56-1.48Q84.36-1.44 84.16-1.42Q83.96-1.40 83.76-1.40L83.76-1.40Q82.92-1.40 82.28-1.64Q81.64-1.88 81.08-2.34Q80.52-2.80 80-3.46Q79.48-4.12 78.92-4.96L78.92-4.96Q77.24-7.40 76.32-8.86Q75.40-10.32 74.86-11.12Q74.32-11.92 73.98-12.28Q73.64-12.64 73.16-12.88L73.16-12.88L72.76-13.08L72.76-13.24Q74.68-13.36 76.06-14.08Q77.44-14.80 78.32-15.88Q79.20-16.96 79.60-18.22Q80-19.48 80-20.68L80-20.68Q80-21.76 79.58-23.04Q79.16-24.32 78.14-25.42Q77.12-26.52 75.36-27.26Q73.60-28 70.92-28L70.92-28ZM65.48-14.16L65.48-26.24L69.52-26.24Q71.04-26.24 72.26-25.80Q73.48-25.36 74.36-24.58Q75.24-23.80 75.70-22.72Q76.16-21.64 76.16-20.36L76.16-20.36Q76.16-19.28 75.74-18.18Q75.32-17.08 74.48-16.18Q73.64-15.28 72.42-14.72Q71.20-14.16 69.60-14.16L69.60-14.16L65.48-14.16Z M104.16-12.20L114.04-12.20L114.04-9.20L104.16-9.20L104.16-12.20Z M162-4.08L160.80-5.16Q156.72-1.32 151.12-1.32L151.12-1.32Q148-1.32 145.60-2.40Q143.20-3.48 141.60-5.28Q140-7.08 139.18-9.44Q138.36-11.80 138.36-14.36L138.36-14.36Q138.36-17.08 139.22-19.34Q140.08-21.60 141.64-23.24Q143.20-24.88 145.34-25.80Q147.48-26.72 150-26.72L150-26.72Q151.72-26.72 153.14-26.32Q154.56-25.92 155.66-25.28Q156.76-24.64 157.46-23.82Q158.16-23 158.44-22.16L158.44-22.16L161.40-22.16Q160.80-23.52 159.86-24.68Q158.92-25.84 157.52-26.68Q156.12-27.52 154.24-28Q152.36-28.48 149.96-28.48L149.96-28.48Q146.48-28.48 143.62-27.48Q140.76-26.48 138.72-24.62Q136.68-22.76 135.56-20.14Q134.44-17.52 134.44-14.28L134.44-14.28Q134.44-11.48 135.34-8.82Q136.24-6.16 138.12-4.10Q140-2.04 142.92-0.78Q145.84 0.48 149.88 0.48L149.88 0.48Q152.44 0.48 154.46 0Q156.48-0.48 157.98-1.18Q159.48-1.88 160.48-2.68Q161.48-3.48 162-4.08L162-4.08Z M180.80-14L180.80-14Q180.80-11.76 181.66-9.22Q182.52-6.68 184.36-4.52Q186.20-2.36 189.04-0.94Q191.88 0.48 195.84 0.48L195.84 0.48Q198.52 0.48 200.70-0.18Q202.88-0.84 204.62-1.96Q206.36-3.08 207.64-4.54Q208.92-6 209.74-7.62Q210.56-9.24 210.98-10.88Q211.40-12.52 211.40-14L211.40-14Q211.40-16.24 210.48-18.78Q209.56-21.32 207.64-23.48Q205.72-25.64 202.78-27.06Q199.84-28.48 195.84-28.48L195.84-28.48Q191.88-28.48 189.04-27.08Q186.20-25.68 184.36-23.54Q182.52-21.40 181.66-18.84Q180.80-16.28 180.80-14ZM184.72-14L184.72-14Q184.72-16.80 185.58-19.14Q186.44-21.48 187.94-23.16Q189.44-24.84 191.48-25.78Q193.52-26.72 195.92-26.72L195.92-26.72Q198.28-26.72 200.38-25.78Q202.48-24.84 204.06-23.16Q205.64-21.48 206.56-19.14Q207.48-16.80 207.48-14L207.48-14Q207.48-11.20 206.56-8.86Q205.64-6.52 204.06-4.84Q202.48-3.16 200.38-2.22Q198.28-1.28 195.92-1.28L195.92-1.28Q193.52-1.28 191.48-2.22Q189.44-3.16 187.94-4.84Q186.44-6.52 185.58-8.86Q184.72-11.20 184.72-14Z M244.28 0L234.60 0L234.60-28L243.80-28Q247.12-28 249.88-26.94Q252.64-25.88 254.62-24.02Q256.60-22.16 257.70-19.60Q258.80-17.04 258.80-14.08L258.80-14.08Q258.80-11 257.66-8.42Q256.52-5.84 254.54-3.96Q252.56-2.08 249.92-1.04Q247.28 0 244.28 0L244.28 0ZM238.24-26.24L238.24-1.76L242.64-1.76Q245.92-1.76 248.22-2.86Q250.52-3.96 252-5.72Q253.48-7.48 254.16-9.66Q254.84-11.84 254.84-14L254.84-14Q254.84-16.40 254.04-18.62Q253.24-20.84 251.70-22.54Q250.16-24.24 247.88-25.24Q245.60-26.24 242.64-26.24L242.64-26.24L238.24-26.24Z M298.88-28L280.80-28L280.80 0L298.88 0L298.88-2.20L284.44-2.20L284.44-13.92L296.84-13.92L296.84-15.76L284.44-15.76L284.44-25.80L298.88-25.80L298.88-28Z M329.96-28L320.88-28L320.88 0L324.52 0L324.52-12.36L326.28-12.36Q327.40-12.36 328.14-12.16Q328.88-11.96 329.48-11.48Q330.08-11 330.60-10.24Q331.12-9.48 331.84-8.36L331.84-8.36L335-3.68Q335.60-2.76 336.18-2Q336.76-1.24 337.44-0.70Q338.12-0.16 338.98 0.16Q339.84 0.48 341.04 0.48L341.04 0.48Q341.92 0.48 342.48 0.40Q343.04 0.32 343.60 0L343.60 0L343.60-1.48Q343.40-1.44 343.20-1.42Q343-1.40 342.80-1.40L342.80-1.40Q341.96-1.40 341.32-1.64Q340.68-1.88 340.12-2.34Q339.56-2.80 339.04-3.46Q338.52-4.12 337.96-4.96L337.96-4.96Q336.28-7.40 335.36-8.86Q334.44-10.32 333.90-11.12Q333.36-11.92 333.02-12.28Q332.68-12.64 332.20-12.88L332.20-12.88L331.80-13.08L331.80-13.24Q333.72-13.36 335.10-14.08Q336.48-14.80 337.36-15.88Q338.24-16.96 338.64-18.22Q339.04-19.48 339.04-20.68L339.04-20.68Q339.04-21.76 338.62-23.04Q338.20-24.32 337.18-25.42Q336.16-26.52 334.40-27.26Q332.64-28 329.96-28L329.96-28ZM324.52-14.16L324.52-26.24L328.56-26.24Q330.08-26.24 331.30-25.80Q332.52-25.36 333.40-24.58Q334.28-23.80 334.74-22.72Q335.20-21.64 335.20-20.36L335.20-20.36Q335.20-19.28 334.78-18.18Q334.36-17.08 333.52-16.18Q332.68-15.28 331.46-14.72Q330.24-14.16 328.64-14.16L328.64-14.16L324.52-14.16Z M365.00-7.08L362.28-7.08Q362.36-5.36 363.18-3.96Q364.00-2.56 365.42-1.58Q366.84-0.60 368.76-0.06Q370.68 0.48 372.96 0.48L372.96 0.48Q375.28 0.48 377.14-0.08Q379.00-0.64 380.32-1.68Q381.64-2.72 382.36-4.20Q383.08-5.68 383.08-7.48L383.08-7.48Q383.08-9.96 381.84-11.54Q380.60-13.12 378.74-14.18Q376.88-15.24 374.70-15.96Q372.52-16.68 370.66-17.48Q368.80-18.28 367.56-19.32Q366.32-20.36 366.32-22.08L366.32-22.08Q366.32-23.04 366.74-23.88Q367.16-24.72 367.98-25.34Q368.80-25.96 370.00-26.34Q371.20-26.72 372.76-26.72L372.76-26.72Q375.36-26.72 377.18-25.62Q379.00-24.52 379.32-22.16L379.32-22.16L382.04-22.16Q381.80-23.64 380.96-24.82Q380.12-26 378.84-26.82Q377.56-27.64 375.94-28.06Q374.32-28.48 372.56-28.48L372.56-28.48Q370.72-28.48 369.06-28Q367.40-27.52 366.14-26.60Q364.88-25.68 364.14-24.28Q363.40-22.88 363.40-21.08L363.40-21.08Q363.40-18.72 364.60-17.28Q365.80-15.84 367.62-14.88Q369.44-13.92 371.56-13.24Q373.68-12.56 375.50-11.70Q377.32-10.84 378.52-9.60Q379.72-8.36 379.72-6.28L379.72-6.28Q379.72-3.68 377.82-2.48Q375.92-1.28 372.76-1.28L372.76-1.28Q370.24-1.28 368.72-1.94Q367.20-2.60 366.40-3.52Q365.60-4.44 365.32-5.42Q365.04-6.40 365.00-7.08L365.00-7.08Z"/></g>
</svg>
</g><g opacity="1" transform="rotate(0 625.1574 335.7269)">
<svg width="100" height="100.1439" x="625.1574" y="335.7269" version="1.1" preserveAspectRatio="none" viewBox="20.200002670288086 19.970077514648438 159.8000030517578 160.02992248535156">
  <g transform="matrix(1 0 0 1 0 0)"><g><path d="M81.6 164.8l21.3-21.3-1.4-1.8-19.9 23.1z" data-color="1" class="companyName"></path><path d="M105 137.6l1.6 2.1 1.4-1.4-1.7-2.3-1.3 1.6z" data-color="1" class="companyName"></path><path d="M102.5 140.5l1.4 1.9 1.6-1.6-1.6-2-1.4 1.7z" data-color="1" class="companyName"></path><path d="M122.3 117.5h6.5l1.9-1.9h-6.8l-1.6 1.9z" data-color="1" class="companyName"></path><path d="M172.5 36.6l-49.1 50c0 .8-.1 1.6-.1 2.4 0 .2-.1.4-.1.7.3 3.6-.3 7.6-1.6 11.8h14.7l-7.6 8.8h7.5l15.6-15.6h-22.2c0-.1 42.9-58.1 42.9-58.1z" data-color="1" class="companyName"></path><path d="M125.2 114.2h7l2.5-2.5h-7.3c-.1 0-2.2 2.5-2.2 2.5z" data-color="1" class="companyName"></path><path d="M107.3 134.9l1.8 2.4 18.2-18.3H121l-13.7 15.9z" data-color="1" class="companyName"></path><path d="M59.6 138.4c9.9 2.2 20.1.7 27.9-4.3 1.1-1.3 2.1-2.6 3.1-4-2.5.5-5 .8-7.6.8-4.8 0-9.6-.9-14.2-2.7-1.4.4-2.8.7-4.2.9-1.9.3-3.9.4-5.8.4-7.6 0-15-2.3-21.2-6.4-.4.1-.8.1-1.2.2 5.2 7.4 13.7 12.9 23.2 15.1z" data-color="1" class="companyName"></path><path d="M55.2 138.7l-1.2 8.1c1.7.2 3.5.4 5.2.4H61l.4-6.9c-.7-.1-1.3-.2-2-.4-1.5-.4-2.9-.8-4.2-1.2z" data-color="1" class="companyName"></path><path d="M84.1 137.6c-4.1 1.9-8.7 2.9-13.4 3.2l.3 4.4c4.9-1.6 9.3-4.2 13.1-7.6z" data-color="1" class="companyName"></path><path d="M44.8 144.3c2.5 1 5 1.8 7.6 2.2l1.2-8.4c-1.9-.7-3.7-1.5-5.4-2.5l-3.4 8.7z" data-color="1" class="companyName"></path><path d="M68.5 140.9c-1.9 0-3.8-.1-5.7-.4l-.3 6.6c2.4-.2 4.8-.7 7.2-1.3l-.4-4.8 1.1-.1c-.7-.1-1.3 0-1.9 0z" data-color="1" class="companyName"></path><path d="M43.3 132.5l-7.6 6.4c.5.4.9.8 1.4 1.1 2 1.5 4.1 2.7 6.3 3.7L47 135c-1.2-.8-2.5-1.6-3.7-2.5z" data-color="1" class="companyName"></path><path d="M34.7 123.4c-3.5.3-7.1.1-10.5-.6.8 2.3 1.9 4.4 3.2 6.5l10.8-1.5c-1.3-1.4-2.5-2.8-3.5-4.4z" data-color="1" class="companyName"></path><path d="M39.4 129.1l-11.2 1.5c1.8 2.7 3.9 5.1 6.4 7.2l7.5-6.3c-.9-.7-1.8-1.5-2.7-2.4z" data-color="1" class="companyName"></path><path d="M92.1 123.1c-1.1.2-2.2.4-3.3.5-1.4.2-2.8.2-4.2.2-1 0-2-.1-3.1-.1-.5 0-1 0-1.5-.1-.6.3-1.3.7-1.9 1-2.2 1.1-4.5 2-6.9 2.7 7.9 2.6 16.3 2.5 24-.1l-3.1-4.1z" data-color="1" class="companyName"></path><path d="M110.9 116.9c2.8-3.1 7.1-9.4 9.3-16.5-4.8 11.1-14.6 19.5-26.5 22.4l3 4c5.5-2.2 10.3-5.5 14.2-9.9z" data-color="1" class="companyName"></path><path d="M75.9 69.7l6.5 2.6c0-.1-.1-.3-.1-.4-.1-.9-.2-1.7-.2-2.6l-6.2.4z" data-color="1" class="companyName"></path><path d="M82.5 65.1v-.7l-6.8 3.8 6.5-.4c0-1 .1-1.8.3-2.7z" data-color="1" class="companyName"></path><path d="M100 53.9c-5-.2-9.8 1.7-12.8 5.1-.4.5-.9 1-1.2 1.6 2.4-1.3 4.9-2.2 7.6-2.7 9.8-1.9 18.2 2.5 24 7.3-.9-1.7-1.9-3.3-3.2-4.8-3.7-4.1-8.5-6.3-14.4-6.5z" data-color="1" class="companyName"></path><path d="M86.4 85.8l-.2-.1.2.1z" data-color="1" class="companyName"></path><path d="M82.5 122.3c2.1.1 4.1.1 6.2-.1 10.8-1.2 20.3-7 26.4-15.5-8.5-.5-15.2-7.3-15.6-15.8-1.1-.2-2.3-.4-3.4-.7-3.9-1.1-6.9-2.7-8.8-3.8 3.5 2.5 6.1 6.5 7.1 11.1 1.3 6.2.3 11.8-3.1 16.7-2.1 3-5.1 5.7-8.8 8.1z" data-color="1" class="companyName"></path><path d="M121.8 87.2c-6.2 3.1-11.9 4.2-16.7 4.2-1.4 0-2.8-.1-4.2-.3.5 7.9 7 14.1 15 14.1v.1c3.2-5 5.2-10.6 5.8-16.5.1-.5.1-1 .1-1.6z" data-color="1" class="companyName"></path><path d="M93.8 59.3c-4.2.8-7.5 2.6-9.2 3.7-1 2.5-1.2 5.4-.8 8.6.3 1.9.7 4.1 1.2 6.3s.9 4.4 1.1 5.9c.7.5 4.5 3.3 10.3 4.9 5.8 1.6 15 2.3 25.4-3.2 0-4.7-.6-11.1-2.9-17-8-7.7-16.5-10.8-25.1-9.2z" data-color="1" class="companyName"></path><path d="M30.9 88.5c-3.1-1.7-5.9-3.8-8.5-6.3-.5 2.4-.8 4.8-.9 7.2l9.9 4.7c-.3-1.8-.5-3.7-.5-5.6z" data-color="1" class="companyName"></path><path d="M31.8 95.9L21.6 91c0 3.2.5 6.4 1.4 9.5l9.8-1.2c-.5-1-.8-2.2-1-3.4z" data-color="1" class="companyName"></path><path d="M69.3 126.4c2.8-.8 5.5-1.8 8.1-3-5.7-1.1-11.1-4.4-15.5-9.6-4.9-5.9-7.8-13.3-8-20.6-7.4.8-14.8-.5-21.5-3.8.3 9.1 4.3 18.3 11.2 25.4 7.1 7.3 16.4 11.5 25.7 11.6z" data-color="1" class="companyName"></path><path d="M92.1 109.6c1.5-3.6 1.8-7.6.8-11.8-1.1-4.9-4.1-9.1-8.1-11.2-3.9-2-8.4-2-13.1-.1-.5.2-1 .4-1.5.7 0 12.2 9.7 22.1 21.9 22.4z" data-color="1" class="companyName"></path><path d="M79.7 122.2c4-2.2 7.8-5.1 10.4-8.9.5-.7.9-1.5 1.3-2.3-12.4-.6-22.3-10.7-22.7-23.2-.9.4-1.9.9-2.8 1.4-2.6 1.3-5.1 2.5-6.6 2.9-1.3.3-2.6.6-3.9.8.2 7 2.9 14.2 7.7 19.8 4.6 5.7 10.5 8.9 16.6 9.5z" data-color="1" class="companyName"></path><path d="M28 111.6c1.5 2.2 3.2 4.2 5.2 6.1l5.6-6.3c-1.2-1.6-2.2-3.3-3.2-5l-7.6 5.2z" data-color="1" class="companyName"></path><path d="M34.9 105c-.7-1.3-1.2-2.7-1.7-4.1l-9.8 1.2c.2.6.4 1.1.6 1.7.9 2.3 2 4.5 3.3 6.6-.1-.1 7.6-5.4 7.6-5.4z" data-color="1" class="companyName"></path><path d="M58.8 128c1.9 0 3.7-.1 5.6-.4h.1c-4.5-.7-8.9-2.3-13-4.7l-2.1 3.9c3.1.7 6.2 1.2 9.4 1.2z" data-color="1" class="companyName"></path><path d="M44 117.2c-.5-.5-1-.9-1.5-1.4-1-1-1.9-2.1-2.8-3.3l-5.4 6.1c1.8 1.5 3.7 2.9 5.7 4.1-.1.1 4-5.5 4-5.5z" data-color="1" class="companyName"></path><path d="M41.2 123.5c2.1 1.2 4.4 2.1 6.7 2.8l2.3-4.2.8.4c-2.1-1.3-4.1-2.7-5.9-4.3l-3.9 5.3z" data-color="1" class="companyName"></path><path d="M103.5 36.4l-2.9-9.7-3.2 9.7c.9 0 1.7-.1 2.6-.1 1.2 0 2.4 0 3.5.1z" data-color="1" class="companyName"></path><path d="M114.2 38.4l-3.1-5.6-2.5 4.2c2.2.3 4.1.8 5.6 1.4z" data-color="1" class="companyName"></path><path d="M90 32.9L87 38c1.5-.5 3.2-.9 5.2-1.1l-2.2-4z" data-color="1" class="companyName"></path><path d="M115.4 44.5c-1.3-.7-3.1-1.2-5.2-1.7-2.6-.4-6-.7-10.2-.7-4.2 0-7.7.3-10.2.7-2.1.4-3.9 1-5.2 1.7 1 .8 6.4 2.1 15.4 2.1s14.4-1.3 15.4-2.1z" data-color="1" class="companyName"></path><path d="M84.2 43c3.6-1.7 9.4-2.7 15.9-2.7s12.3 1 15.9 2.7c.7-.5.9-.9.9-1.1 0-.5-1.2-1.6-4.3-2.6-3.3-1-7.7-1.6-12.5-1.6s-9.2.6-12.5 1.6c-3.1 1-4.3 2.1-4.3 2.6-.1.2.2.6.9 1.1z" data-color="1" class="companyName"></path><path d="M107.4 30.7c.8 0 1.4-.7 1.3-1.4 0-.7-.6-1.3-1.3-1.3-.8 0-1.4.7-1.3 1.4 0 .7.6 1.3 1.3 1.3z" data-color="1" class="companyName"></path><path d="M100.7 24.3c.8 0 1.4-.7 1.3-1.4 0-.7-.6-1.3-1.3-1.3-.8 0-1.4.7-1.3 1.4 0 .6.5 1.2 1.3 1.3z" data-color="1" class="companyName"></path><path d="M94.1 30.7c.8 0 1.4-.7 1.3-1.4 0-.7-.6-1.3-1.3-1.3-.8 0-1.4.7-1.3 1.4 0 .7.6 1.3 1.3 1.3z" data-color="1" class="companyName"></path><path d="M132.5 93.1L180 29l-1.1-1-55.5 56.4c0-3.2-.4-6.5-1-9.6-1.3-6.3-3.7-11.6-6.9-15.4-3.9-4.5-9.1-6.9-15.4-7.1-5.5-.2-10.7 1.9-14 5.6-1.1 1.2-2 2.6-2.6 4.1-.3.2-.6.4-.8.6l-11.9 6.6 1.5.6v.1h.2l10.2 4c.3 1.4.6 2.8.9 4.3.6 2.8 1.1 5.3 1.2 6.7-4.1-1.9-8.8-1.8-13.6.2-1.8.8-3.9 1.8-5.9 2.8-2.6 1.3-5 2.5-6.3 2.8C45.9 94 32 90 22.7 80.2l-.9-1-.3 1.3c-.8 3.1-1.3 6.4-1.3 9.6v.1c0 4.7.8 9.5 2.5 13.9 2.7 7.2 7.4 13.2 13.3 17.6-4.2.5-8.5.2-12.6-.7l-1.3-.3.4 1.3c1 3.1 2.4 6 4.2 8.7v.1h.1c2.6 4 5.9 7.5 9.7 10.3 6.8 5 14.9 7.5 22.9 7.5 9.3 0 18.6-3.3 25.9-9.9 1.2-1.1 2.4-2.3 3.5-3.6h.1c1.5-1.7 2.9-3.6 4.2-5.5 1.2-.3 2.3-.7 3.4-1.1l6.9 9-1.5 1.7-1.8-2.5-1.2.9 2 2.7L67.4 179l1.1 1 35.3-35.3 1.7 2.3 1.2-.9-1.8-2.4 1.6-1.6 3.5 4.5 1.2-.9-3.6-4.7 1.4-1.4 1.7 2.3 1.2-.9-1.8-2.4 19.4-19.4h3.9v-1.5H131l1.9-1.9h7.4v-1.5h-5.9l2.5-2.5h4.6v-1.5h-3.1l17.1-17.1-23-.1zm-30 47.4l1.5-1.7 1.6 2-1.6 1.6-1.5-1.9zm.4 3l-21.3 21.3 19.9-23.1 1.4 1.8zm2.1-5.9l1.3-1.5 1.7 2.3-1.4 1.4-1.6-2.2zm-33.7-10.2c2.3-.7 4.6-1.6 6.9-2.7.7-.3 1.3-.6 1.9-1 .5 0 1 .1 1.5.1 1 .1 2 .1 3.1.1 1.4 0 2.8-.1 4.2-.2 1.1-.1 2.2-.3 3.3-.5l3.2 4.1c-7.8 2.6-16.3 2.7-24.1.1zm16.2 6.6c-7.8 5-18 6.6-27.9 4.3-9.6-2.2-18-7.7-23.3-15.1.4 0 .8-.1 1.2-.2 6.2 4.1 13.6 6.4 21.2 6.4 1.9 0 3.9-.1 5.8-.4 1.4-.2 2.8-.5 4.2-.9 4.5 1.8 9.3 2.7 14.2 2.7 2.6 0 5.1-.3 7.6-.8-.8 1.4-1.9 2.8-3 4zm-63.3-11.2c3.5.7 7 .9 10.5.6 1 1.6 2.2 3 3.5 4.4l-10.8 1.5c-1.3-2.1-2.4-4.2-3.2-6.5zm15.2 6.3c.9.8 1.8 1.7 2.7 2.4l-7.5 6.3c-2.4-2.1-4.6-4.5-6.4-7.2l11.2-1.5zm3.9 3.4c1.2.9 2.4 1.7 3.7 2.5l-3.6 8.7c-2.2-1-4.3-2.2-6.3-3.7-.5-.4-.9-.7-1.4-1.1l7.6-6.4zm1.5 11.8l3.5-8.6c1.7.9 3.5 1.8 5.4 2.5l-1.2 8.4c-2.6-.5-5.2-1.3-7.7-2.3zm9.2 2.5l1.2-8.1c1.4.5 2.7.9 4.2 1.2.7.2 1.3.3 2 .4l-.4 6.9h-1.8c-1.8-.1-3.5-.2-5.2-.4zm14.5-5.9c.6 0 1.2 0 1.8-.1l-1.1.1.4 4.8c-2.3.7-4.7 1.1-7.2 1.3l.3-6.6c2 .3 3.9.5 5.8.5zm2.6 4.3l-.3-4.4c4.7-.3 9.3-1.3 13.4-3.2-3.9 3.4-8.3 6-13.1 7.6zm46.4-80c-5.9-4.8-14.2-9.2-24-7.3-2.6.5-5.2 1.4-7.6 2.7.4-.6.8-1.1 1.2-1.6 3-3.3 7.8-5.2 12.8-5.1 5.9.2 10.7 2.4 14.3 6.6 1.4 1.4 2.4 3 3.3 4.7zm-23.7-5.9c8.6-1.6 17.1 1.5 25.2 9.2 2.3 5.9 2.9 12.4 2.9 17-10.5 5.6-19.6 4.8-25.4 3.2-5.9-1.6-9.7-4.4-10.3-4.9-.2-1.6-.6-3.7-1.1-5.9-.5-2.2-.9-4.4-1.2-6.3-.5-3.2-.2-6 .8-8.6 1.7-1.1 4.9-2.9 9.1-3.7zM51 122.5l-.8-.4-2.3 4.2c-2.3-.7-4.6-1.7-6.7-2.8l3.9-5.3c1.8 1.6 3.8 3.1 5.9 4.3zm13.5 5c-1.9.3-3.8.4-5.7.4-3.2 0-6.4-.4-9.4-1.2l2.1-3.9c4.1 2.4 8.5 4 13 4.7zm51.4-22.2c-8-.1-14.5-6.3-15-14.2 1.3.2 2.7.3 4.2.3 4.9 0 10.6-1.1 16.7-4.2 0 .5-.1 1.1-.1 1.6-.5 5.9-2.5 11.6-5.8 16.5zm-21.6-7.8c-1-4.6-3.6-8.6-7.1-11.1 1.9 1.1 4.9 2.7 8.8 3.8 1.1.3 2.3.6 3.4.7.4 8.5 7.1 15.3 15.6 15.8-6 8.5-15.5 14.3-26.4 15.5-2.1.2-4.2.3-6.2.1 3.7-2.4 6.8-5.1 8.8-8.1 3.5-5 4.5-10.6 3.1-16.7zM82.5 64.4v.7c-.2.9-.3 1.8-.3 2.7l-6.5.4 6.8-3.8zm-.3 4.8c0 .8.1 1.7.2 2.6 0 .1 0 .3.1.4L76 69.6l6.2-.4zm4.2 16.6c-.1 0-.1-.1-.2-.1l.2.1zm-1.6.8c4 2.1 7 6.3 8.1 11.2.9 4.2.6 8.2-.8 11.8-12.1-.3-21.9-10.2-21.9-22.4.5-.2 1-.5 1.5-.7 4.7-1.9 9.3-1.9 13.1.1zm-18.9 2.7c.9-.5 1.9-.9 2.8-1.4.3 12.5 10.3 22.6 22.7 23.2-.4.8-.8 1.5-1.3 2.3-2.6 3.8-6.4 6.7-10.4 8.9-6.1-.5-12-3.8-16.7-9.4-4.8-5.7-7.5-12.9-7.7-19.8 1.3-.2 2.6-.4 3.9-.8 1.6-.5 4-1.7 6.7-3zm-12 3.8c.2 7.2 3.1 14.7 8 20.6 4.4 5.2 9.8 8.6 15.5 9.6-2.6 1.2-5.3 2.3-8.1 3-9.3-.1-18.6-4.3-25.7-11.7-6.8-7.1-10.9-16.3-11.2-25.4 6.7 3.4 14.1 4.7 21.5 3.9zm-23-4.6c0 1.9.2 3.7.5 5.6l-9.9-4.7c.1-2.4.4-4.8.9-7.2 2.6 2.5 5.4 4.6 8.5 6.3zm.9 7.4c.3 1.2.6 2.4.9 3.5l-9.8 1.2c-.9-3.1-1.3-6.3-1.4-9.5l10.3 4.8zm1.4 5c.5 1.4 1.1 2.8 1.7 4.1l-7.8 5.3c-1.3-2.1-2.4-4.3-3.3-6.6-.2-.6-.4-1.1-.6-1.7.2 0 10-1.1 10-1.1zm2.4 5.4c.9 1.7 2 3.4 3.2 5l-5.6 6.3c-1.9-1.8-3.7-3.9-5.2-6.1l7.6-5.2zm4.1 6.2c.9 1.1 1.8 2.2 2.8 3.3.5.5 1 1 1.5 1.4l-4.1 5.5c-2-1.2-3.9-2.6-5.7-4.1l5.5-6.1zm54 10.3c11.9-2.9 21.7-11.3 26.5-22.4-2.2 7.1-6.6 13.4-9.3 16.5-3.9 4.3-8.7 7.7-14.2 9.8l-3-3.9zm26-16.8c.5-1 .9-2.1 1.3-3.1h12l-6.3 7.3h-3.4v1.5h2.2l-2.1 2.5H115c1.7-2.6 3.4-5.4 4.7-8.2zm-12.4 28.9L121 119h6.3l-18.2 18.3-1.8-2.4zm15-17.4l1.6-1.9h6.8l-1.9 1.9h-6.5zm2.9-3.3l2.1-2.5h7.3l-2.5 2.5h-6.9zm3.4-4l7.6-8.8h-14.7c1.4-4.2 1.9-8.2 1.6-11.8 0-.2.1-.4.1-.7.1-.8.1-1.6.1-2.4l49.1-50-42.9 58h22.2l-15.6 15.6-7.5.1zM97.7 128c5.5-2.2 10.4-5.6 14.3-10.1.6-.7 1.3-1.5 1.8-2.3h8.1l-1.6 1.9h-3.2v1.5h1.9l-12.6 14.7-1.5-2-1.2.9 1.7 2.3-1.3 1.5-6.4-8.4z" data-color="2" class="icon2"></path><path d="M92.7 72.9h.2c2.7 0 4.8-2.2 4.8-4.8v-.2c0-2.7-2.2-4.8-4.8-4.8h-.2c-2.7 0-4.8 2.2-4.8 4.8v.2c0 2.7 2.2 4.8 4.8 4.8zm-3.3-5c0-1.8 1.5-3.3 3.3-3.3h.2c1.8 0 3.3 1.5 3.3 3.3v.2c0 1.8-1.5 3.3-3.3 3.3h-.2c-1.8 0-3.3-1.5-3.3-3.3v-.2z" data-color="2" class="icon2"></path><path d="M83 44v.3c0 .8.6 2 5.4 2.8 3.1.6 7.3.9 11.7.9 4.4 0 8.5-.3 11.7-.9 4.8-.9 5.4-2 5.4-2.8V44c.8-.6 1.2-1.3 1.2-2 0-.9-.6-1.7-1.7-2.4l-5.3-9.8-4.1 6.9c-.6-.1-1.3-.2-2-.2l-3.3-11c1.5-.6 2.1-2.3 1.5-3.8-.6-1.5-2.3-2.1-3.8-1.5-1 .5-1.7 1.5-1.7 2.6s.7 2.1 1.6 2.6l-3.6 11c-.7.1-1.4.1-2.1.2l-3.7-6.7-5.3 8.9c-1.9.9-3 2-3 3.1-.1.8.3 1.5 1.1 2.1zm16.3-21.1c0-.8.7-1.4 1.4-1.3.7 0 1.3.6 1.3 1.3 0 .8-.7 1.4-1.4 1.3-.7 0-1.3-.6-1.3-1.3zm4.2 13.5c-1.2-.1-2.3-.1-3.5-.1-.9 0-1.7 0-2.6.1l3.2-9.7 2.9 9.7zm13.3 5.6c0 .2-.2.6-.9 1.1-3.6-1.7-9.4-2.7-15.9-2.7s-12.3 1-15.9 2.7c-.7-.5-.9-.9-.9-1.1 0-.5 1.2-1.6 4.3-2.6 3.3-1 7.7-1.6 12.5-1.6s9.2.6 12.5 1.6c3.1.9 4.3 2.1 4.3 2.6zm-32.2 2.5c1.3-.7 3.1-1.2 5.2-1.7 2.6-.4 6-.7 10.2-.7 4.2 0 7.7.3 10.2.7 2.1.4 3.9 1 5.2 1.7-1 .8-6.4 2.1-15.4 2.1s-14.4-1.3-15.4-2.1zm24-7.5l2.5-4.2 3.1 5.6c-1.5-.6-3.4-1.1-5.6-1.4zM87 38l3-5.1 2.1 3.9c-1.9.3-3.6.7-5.1 1.2z" data-color="2" class="icon2"></path><path d="M107.4 32.2c1.6 0 2.9-1.3 2.9-2.9 0-1.6-1.3-2.9-2.9-2.9-1.6 0-2.9 1.3-2.9 2.9 0 1.6 1.3 2.9 2.9 2.9zm0-4.3c.8 0 1.4.7 1.3 1.4 0 .7-.6 1.3-1.3 1.3-.8 0-1.4-.7-1.3-1.4 0-.7.6-1.3 1.3-1.3z" data-color="2" class="icon2"></path><path d="M94.1 32.2c1.6 0 2.9-1.3 2.9-2.9 0-1.6-1.3-2.9-2.9-2.9-1.6 0-2.9 1.3-2.9 2.9.1 1.6 1.3 2.9 2.9 2.9zm0-4.3c.8 0 1.4.7 1.3 1.4 0 .7-.6 1.3-1.3 1.3-.8 0-1.4-.7-1.3-1.4 0-.7.6-1.3 1.3-1.3z" data-color="2" class="icon2"></path></g></g>
</svg>
</g></svg></svg>